<?xml version="1.0" standalone="no"?><!DOCTYPE svg PUBLIC "-//W3C//DTD SVG 1.1//EN" "http://www.w3.org/Graphics/SVG/1.1/DTD/svg11.dtd"><svg t="1753156411904" class="icon" viewBox="0 0 1024 1024" version="1.1" xmlns="http://www.w3.org/2000/svg" p-id="3285" xmlns:xlink="http://www.w3.org/1999/xlink" width="200" height="200"><path d="M868.864 931.328c8.192-2.048 15.36-5.632 21.504-11.776 4.608-4.608 7.68-10.24 9.728-16.384 0-0.512 0.512-1.024 0.512-1.536v-1.024c1.024-3.584 1.536-7.68 1.536-11.264 0-5.632-1.024-10.752-3.072-15.872-0.512-1.024-1.024-2.048-1.536-2.56 0-0.512-0.512-1.024-0.512-1.024-0.512-0.512-0.512-1.024-1.024-1.536-0.512-0.512-1.024-1.536-1.024-2.048 0-0.512-0.512-0.512-0.512-1.024-1.536-2.048-3.072-3.584-4.608-5.632l-121.344-117.76c-16.896-16.384-43.52-15.872-59.904 1.024-16.384 16.896-15.872 43.52 1.024 59.904l48.128 46.592-236.032 3.072c-23.04 0.512-41.984 19.456-41.472 43.008 0.512 23.04 19.456 41.984 43.008 41.472l338.432-4.608c1.536 0 2.56 0 4.096-0.512h1.024c-0.512 0 1.024-0.512 2.048-0.512z" fill="#A2F4BD" p-id="3286"></path><path d="M141.312 931.328c-0.512 0-0.512 0 0 0-8.192-2.048-15.36-5.632-21.504-11.776-4.608-4.608-7.68-10.24-9.728-16.384 0-0.512-0.512-1.024-0.512-1.536v-1.024c-1.024-3.584-1.536-7.68-1.536-11.264 0-5.632 1.024-10.752 3.072-15.872 0.512-1.024 1.024-2.048 1.536-2.56 0-0.512 0.512-1.024 0.512-1.024 0.512-0.512 0.512-1.024 1.024-1.536 0.512-0.512 1.024-1.536 1.024-2.048 0-0.512 0.512-0.512 0.512-1.024 1.536-2.048 3.072-3.584 4.608-5.632l121.344-117.76c16.896-16.384 43.52-15.872 59.904 1.024 16.384 16.896 15.872 43.52-1.024 59.904l-48.128 46.592 236.032 3.072c23.04 0.512 41.984 19.456 41.472 43.008-0.512 23.04-19.456 41.984-43.008 41.472l-338.432-4.608c-1.536 0-2.56 0-4.096-0.512H143.36s-1.024-0.512-2.048-0.512z" fill="#A2F4BD" p-id="3287"></path><path d="M512 512m-424.96 0a424.96 424.96 0 1 0 849.92 0 424.96 424.96 0 1 0-849.92 0Z" fill="#09CE74" p-id="3288"></path><path d="M485.888 570.88v-42.496H403.456c-15.872-1.536-24.576-7.68-26.112-18.944 0-14.336 8.704-21.504 26.112-21.504h56.832l-97.28-148.48c0-1.536-1.024-3.072-2.56-4.608-3.072-6.144-5.632-12.8-7.168-18.944 1.536-12.8 8.704-19.456 21.504-21.504 12.8 0 22.016 5.632 28.16 16.384L512 474.112l108.544-162.816c6.144-10.752 15.872-16.384 28.16-16.384 12.8 1.536 19.456 8.704 21.504 21.504 0 3.072-2.56 9.216-7.168 18.944-1.536 1.536-2.56 3.072-2.56 4.608l-96.768 148.992h56.832c17.408 0 26.112 7.168 26.112 21.504-1.536 11.264-10.24 17.408-26.112 18.944h-82.432v42.496h82.432c17.408 0 26.112 7.168 26.112 21.504-1.536 11.264-10.24 17.408-26.112 18.944h-82.432v94.72c0 15.872-8.704 23.552-26.112 23.552-17.408 0-26.112-7.68-26.112-23.552v-94.72H403.456c-15.872-1.536-24.576-7.68-26.112-18.944 0-14.336 8.704-21.504 26.112-21.504h82.432z" fill="#CCFFDE" p-id="3289"></path></svg>