<?xml version="1.0" standalone="no"?><!DOCTYPE svg PUBLIC "-//W3C//DTD SVG 1.1//EN" "http://www.w3.org/Graphics/SVG/1.1/DTD/svg11.dtd"><svg t="1753156381940" class="icon" viewBox="0 0 1024 1024" version="1.1" xmlns="http://www.w3.org/2000/svg" p-id="22388" xmlns:xlink="http://www.w3.org/1999/xlink" width="200" height="200"><path d="M512 0c283.733333 0 512 228.266667 512 512S795.733333 1024 512 1024 0 795.733333 0 512 228.266667 0 512 0z m277.333333 695.466667h-61.866666v-61.866667c0-17.066667-12.8-29.866667-29.866667-29.866667-17.066667 0-29.866667 12.8-29.866667 29.866667v61.866667h-61.866666c-17.066667 0-29.866667 12.8-29.866667 29.866666 0 17.066667 12.8 29.866667 29.866667 29.866667h61.866666v61.866667c0 17.066667 12.8 29.866667 29.866667 29.866666 17.066667 0 29.866667-12.8 29.866667-29.866666v-61.866667H789.333333c17.066667 0 29.866667-12.8 29.866667-29.866667 0-14.933333-12.8-29.866667-29.866667-29.866666zM492.8 554.666667c-85.333333 0-153.6-68.266667-153.6-151.466667 0-83.2 68.266667-151.466667 153.6-151.466667s153.6 68.266667 153.6 151.466667c0 85.333333-68.266667 151.466667-153.6 151.466667z m157.866667 42.666666c-17.066667-10.666667-32-19.2-51.2-25.6 55.466667-36.266667 91.733333-98.133333 91.733333-168.533333 0-110.933333-87.466667-200.533333-198.4-200.533333-113.066667 0-198.4 89.6-198.4 200.533333 0 70.4 36.266667 134.4 91.733333 168.533333-96 36.266667-166.4 119.466667-181.333333 224v8.533334c0 14.933333 12.8 25.6 25.6 25.6 14.933333 0 25.6-10.666667 25.6-25.6v-2.133334-6.4c17.066667-110.933333 115.2-192 232.533333-192h4.266667c38.4 0 74.666667 8.533333 108.8 25.6 17.066667-12.8 32-23.466667 49.066667-32z" fill="#50A74A" p-id="22389"></path></svg>