<?xml version="1.0" standalone="no"?><!DOCTYPE svg PUBLIC "-//W3C//DTD SVG 1.1//EN" "http://www.w3.org/Graphics/SVG/1.1/DTD/svg11.dtd"><svg t="1753190550293" class="icon" viewBox="0 0 1024 1024" version="1.1" xmlns="http://www.w3.org/2000/svg" p-id="9842" xmlns:xlink="http://www.w3.org/1999/xlink" width="200" height="200"><path d="M515.072 32.256C250.368 32.256 35.84 247.296 35.84 512s214.528 479.744 479.744 479.744 479.744-214.528 479.744-479.744-215.04-479.744-480.256-479.744z m262.144 406.016l-380.416 380.416c-4.096 4.096-10.24 6.656-15.872 6.656-4.096 0-8.192-1.024-11.776-3.584-8.704-5.632-12.8-16.896-9.216-26.624l78.848-216.064H268.8c-9.216 0-17.408-5.632-20.48-13.824-3.584-8.192-1.536-17.92 4.608-24.576L588.8 205.312c7.168-7.168 17.92-8.704 26.624-3.584 8.704 4.608 13.312 14.848 11.264 24.576l-38.912 174.08h173.568c9.216 0 17.408 5.632 20.48 13.824 3.584 8.192 2.048 17.92-4.608 24.064z" p-id="9843" fill="#2b7a0b"></path></svg>