<?xml version="1.0" standalone="no"?><!DOCTYPE svg PUBLIC "-//W3C//DTD SVG 1.1//EN" "http://www.w3.org/Graphics/SVG/1.1/DTD/svg11.dtd"><svg t="1753190451812" class="icon" viewBox="0 0 1024 1024" version="1.1" xmlns="http://www.w3.org/2000/svg" p-id="19426" id="mx_n_1753190451814" width="200" height="200" xmlns:xlink="http://www.w3.org/1999/xlink"><path d="M987.736847 530.070588c-12.047059-78.305882-54.211765-156.611765-120.470588-210.823529-30.117647-24.094118-66.258824-48.188235-108.42353-60.235294-24.094118 36.141176-54.211765 60.235294-96.37647 72.282353h12.047059c12.047059 0 24.094118 6.023529 42.164706 12.047058 12.047059 6.023529 18.070588 18.070588 12.047058 30.117648-6.023529 12.047059-18.070588 18.070588-30.117647 12.047058-84.329412-24.094118-180.705882-12.047059-222.870588-6.023529-12.047059 6.023529-24.094118 0-30.117647-12.047059-6.023529-18.070588 6.023529-30.117647 18.070588-30.117647H481.760376c6.023529 0 24.094118 0 36.141177-6.023529-42.164706-18.070588-72.282353-54.211765-90.352941-90.352942-6.023529 0-18.070588 6.023529-24.094118 6.02353-72.282353-36.141176-162.635294-30.117647-210.823529-24.094118-24.094118 0-36.141176 24.094118-24.094118 42.164706l48.188235 84.329412c-48.188235 42.164706-84.329412 90.352941-102.4 150.588235H60.113318c-18.070588 0-30.117647 18.070588-30.117647 30.117647l6.023529 114.447059c0 12.047059 6.023529 24.094118 18.070588 24.094118l72.282353 30.117647c30.117647 72.282353 96.376471 132.517647 180.705883 174.682353l6.023529 102.4c0 18.070588 18.070588 36.141176 42.164706 36.141176l96.37647-6.023529c12.047059 0 30.117647-12.047059 36.141177-24.094118l24.094118-54.211765c54.211765 6.023529 108.423529 0 162.635294-12.047058v42.164705c0 18.070588 18.070588 36.141176 42.164706 36.141177l96.37647-6.023529c12.047059 0 24.094118-6.023529 30.117647-18.070589 48.188235-96.376471 96.376471-186.729412 132.517647-283.105882 18.070588-54.211765 24.094118-102.4 12.047059-156.611765z m-674.635294 0c-24.094118 0-48.188235-18.070588-54.211765-42.164706 0-24.094118 18.070588-48.188235 48.188236-48.188235s48.188235 18.070588 54.211764 42.164706c0 30.117647-24.094118 48.188235-48.188235 48.188235z" fill="#2b7a0b" p-id="19427"></path><path d="M608.254494 325.270588c90.352941 0 168.658824-72.282353 168.658824-162.635294S704.630965 0 608.254494 0C517.901553 0 445.6192 72.282353 445.6192 162.635294s72.282353 162.635294 162.635294 162.635294z m-54.211765-168.658823c-6.023529 0-12.047059-6.023529-12.047058-12.047059s6.023529-12.047059 12.047058-12.047059h36.141177l-42.164706-42.164706c-6.023529-6.023529-6.023529-12.047059 0-18.070588 6.023529-6.023529 12.047059-6.023529 18.070588 0l42.164706 42.164706 42.164706-42.164706c6.023529-6.023529 12.047059-6.023529 18.070588 0 6.023529 6.023529 6.023529 12.047059 0 18.070588l-36.141176 36.141177h30.117647c6.023529 0 12.047059 6.023529 12.047059 12.047058s-6.023529 12.047059-12.047059 12.047059h-36.141177v18.070589h42.164706c6.023529 0 12.047059 6.023529 12.047059 12.047058s-6.023529 12.047059-12.047059 12.047059h-42.164706v42.164706c0 6.023529-6.023529 12.047059-12.047058 12.047059s-12.047059-6.023529-12.047059-12.047059v-30.117647h-48.188236c-6.023529 0-12.047059-6.023529-12.047058-12.047059s6.023529-12.047059 12.047058-12.047059h42.164706v-24.094117h-42.164706z" fill="#2b7a0b" p-id="19428"></path></svg>