<?xml version="1.0" standalone="no"?><!DOCTYPE svg PUBLIC "-//W3C//DTD SVG 1.1//EN" "http://www.w3.org/Graphics/SVG/1.1/DTD/svg11.dtd"><svg t="1753190573076" class="icon" viewBox="0 0 1024 1024" version="1.1" xmlns="http://www.w3.org/2000/svg" p-id="10902" xmlns:xlink="http://www.w3.org/1999/xlink" width="200" height="200"><path d="M834.869 175.034c-7.668 0.278-15.222 0.385-22.612 0.385h-0.032c-194.413 0-280.058-89.102-280.771-89.87L512.027 64.28l-19.454 21.268c-0.848 0.932-91.22 96.715-303.444 89.486l-27.255-0.93v403.924c0 105.752 35.307 260.001 340.618 378.013l9.509 3.68 9.504-3.68C826.815 838.03 862.123 683.78 862.123 578.028V174.104l-27.254 0.93zM477.186 697.78L273.372 517.181l54.153-43.882 108.368 79.957s149.63-154.798 294.097-227.034l20.636 23.245s-180.57 149.635-273.44 348.312z" p-id="10903" fill="#2b7a0b"></path></svg>